HIERARCHY
ROOT Hips
{
	OFFSET 0.00000 0.00000 0.00000
	CHANNELS 6 Xposition Yposition Zposition Yrotation Zrotation Xrotation 
	JOINT Lumbar
	{
		OFFSET 0 0 0
		CHANNELS 3 Zrotation Xrotation Yrotation
		JOINT Neck
		{
			OFFSET 0.00 0.2701 0.00
			CHANNELS 3 Zrotation Xrotation Yrotation
			End Site
			{
				OFFSET 0.00 0.1379 0.00
			}
		}
		JOINT RightShoulder
		{
			OFFSET 0.0119 0.2289 0.1181
			CHANNELS 3 Zrotation Xrotation Yrotation
			JOINT RightElbow
			{
				OFFSET 0.00 -0.1475 0.00
				CHANNELS 2 Zrotation Yrotation
				JOINT RightWrist
				{
					OFFSET 0.00 -0.1605 0.00
					CHANNELS 2 Zrotation Xrotation
					End Site
					{
						OFFSET 0.0040 -0.1068 0.0006
					}
				}
			}
		}
		JOINT LeftShoulder
		{
			OFFSET 0.0119 0.2289 -0.1181
			CHANNELS 3 Zrotation Xrotation Yrotation
			JOINT LeftElbow
			{
				OFFSET 0.00 -0.1475 0.00
				CHANNELS 2 Zrotation Yrotation
				JOINT LeftWrist
				{
					OFFSET 0.00 -0.1605 0.00
					CHANNELS 2 Zrotation Xrotation
					End Site
					{
						OFFSET 0.0040 -0.1068 -0.0006
					}
				}
			}
		}
	}
	JOINT RightHip
	{
		OFFSET 0.0316 -0.0424 0.0458
		CHANNELS 3 Zrotation Xrotation Yrotation
		JOINT RightKnee
		{
			OFFSET 0.00 -0.2438 0.00
			CHANNELS 1 Zrotation
			JOINT RightAnkle
			{
				OFFSET 0.00 -0.2449 0.00
				CHANNELS 3 Zrotation Xrotation Yrotation
				End Site
				{
					OFFSET 0.1237 -0.0542 0.0051
				}
			}
		}
	}
	JOINT LeftHip
	{
		OFFSET 0.0316 -0.0424 -0.0458
		CHANNELS 3 Zrotation Xrotation Yrotation
		JOINT LeftKnee
		{
			OFFSET 0.00 -0.2438 0.00
			CHANNELS 1 Zrotation
			JOINT LeftAnkle
			{
				OFFSET 0.00 -0.2449 0.00
				CHANNELS 3 Zrotation Xrotation Yrotation
				End Site
				{
					OFFSET 0.1237 -0.0542 -0.0051
				}
			}
		}
	}
}
MOTION
Frames: 14
Frame Time: 0.02
-0 0.57926 -0 185.33621 0 -2.81816 2.81931 2.19566 -6.7796 -37.43586 3.65558 4.19832 -25.1001 -76.07632 -87.14688 22.9282 74.53077 -30.54917 -2.27481 -5.44007 72.61573 75.11648 26.048 -70.95733 -32.52684 1.4993 -4.35935 1.73732 5.92704 -6.85345 -1.62673 -2.89143 -6.52696 -1.61716 5.51036 -2.12912 -6.8706 0.57699 0.82053 -2.38127
-3e-05 0.57926 1e-05 185.35392 0 -2.81471 2.84063 2.19715 -6.81064 -37.42155 3.65712 4.20411 -25.10448 -76.09079 -87.14688 22.92696 74.51217 -30.46428 -2.28518 -5.51049 72.59555 75.21026 26.04298 -70.98339 -32.45041 1.52539 -4.36305 1.73543 5.93222 -6.85848 -1.62203 -2.8917 -6.54335 -1.61333 5.50865 -2.10388 -6.87667 0.58124 0.80732 -2.41972
-6e-05 0.57926 2e-05 185.37152 0 -2.81126 2.86173 2.19859 -6.84146 -37.40709 3.65876 4.20989 -25.10979 -76.10515 -87.14688 22.92594 74.4937 -30.38143 -2.29561 -5.5814 72.57528 75.30394 26.0382 -71.00948 -32.37466 1.55128 -4.36664 1.7335 5.93741 -6.86356 -1.61733 -2.89195 -6.55961 -1.60939 5.50691 -2.07881 -6.8829 0.5855 0.79421 -2.45794
-9e-05 0.57925 4e-05 185.38871 0 -2.80775 2.88241 2.19988 -6.87177 -37.39197 3.66074 4.21571 -25.11952 -76.11981 -87.14688 22.92421 74.47456 -30.30605 -2.30661 -5.65445 72.5549 75.39785 26.03388 -71.03563 -32.30099 1.57645 -4.36997 1.73149 5.9427 -6.86882 -1.61252 -2.89217 -6.57548 -1.60513 5.50508 -2.05381 -6.88972 0.58987 0.78131 -2.49584
-0.00012 0.57925 5e-05 185.40791 0 -2.80453 2.90561 2.202 -6.90485 -37.38046 3.66079 4.22138 -25.10669 -76.13363 -87.14688 22.92425 74.45771 -30.19131 -2.31486 -5.71554 72.53564 75.49019 26.02651 -71.0611 -32.2164 1.60523 -4.37482 1.73003 5.94745 -6.87306 -1.60823 -2.89259 -6.59341 -1.60273 5.50377 -2.02798 -6.8933 0.59371 0.76721 -2.53574
-0.00014 0.57924 6e-05 185.42291 0 -2.80069 2.92327 2.20232 -6.93199 -37.36124 3.66504 4.22731 -25.14103 -76.14873 -87.14688 22.92188 74.43688 -30.15977 -2.32875 -5.80227 72.51367 75.58601 26.026 -71.08821 -32.15494 1.62648 -4.37638 1.72735 5.95334 -6.87949 -1.60288 -2.89258 -6.60699 -1.59629 5.5013 -2.00426 -6.90378 0.59861 0.75572 -2.57113
-0.00012 0.57924 7e-05 185.42579 0 -2.79522 2.92688 2.19772 -6.94332 -37.32002 3.68056 4.2346 -25.31493 -76.17165 -87.14688 22.90281 74.39732 -30.36647 -2.36066 -5.96192 72.4859 75.69282 26.04262 -71.11916 -32.1583 1.62559 -4.36916 1.72154 5.96261 -6.89194 -1.59421 -2.89136 -6.60806 -1.57901 5.49608 -1.98316 -6.93384 0.60704 0.751 -2.59675
-9e-05 0.57924 7e-05 185.42459 0 -2.78909 2.92461 2.19126 -6.94862 -37.271 3.7004 4.242 -25.53419 -76.19485 -87.14688 22.88404 74.35541 -30.65538 -2.39781 -6.1475 72.45474 75.80332 26.06709 -71.15207 -32.18479 1.61735 -4.35857 1.71442 5.97291 -6.90659 -1.58455 -2.8897 -6.6048 -1.55754 5.48956 -1.96479 -6.97087 0.61642 0.74901 -2.61739
-6e-05 0.57923 8e-05 185.42554 0 -2.78326 2.9243 2.18561 -6.95619 -37.22606 3.7185 4.24901 -25.72778 -76.21547 -87.14689 22.87047 74.31915 -30.90203 -2.43109 -6.31978 72.42444 75.911 26.08843 -71.18439 -32.20012 1.61334 -4.34931 1.70777 5.98273 -6.92025 -1.57562 -2.88827 -6.60392 -1.53782 5.48339 -1.94722 -7.00434 0.625 0.74607 -2.63856
-4e-05 0.57923 8e-05 185.42501 0 -2.77753 2.92726 2.18017 -6.96545 -37.17926 3.73565 4.25765 -25.94568 -76.24745 -87.14688 22.83064 74.26228 -31.17123 -2.47082 -6.49746 72.39837 76.02228 26.10554 -71.21482 -32.21835 1.60554 -4.34088 1.70178 5.99298 -6.93388 -1.56552 -2.88672 -6.60145 -1.51895 5.47837 -1.92097 -7.03921 0.63517 0.74191 -2.66693
1e-05 0.57922 0.0001 185.42687 0 -2.77132 2.92168 2.17379 -6.97015 -37.13399 3.75583 4.26269 -26.11995 -76.25457 -87.14686 22.85027 74.24937 -31.41062 -2.49811 -6.67128 72.36097 76.12845 26.13628 -71.25042 -32.23581 1.60392 -4.32993 1.69393 6.00211 -6.94807 -1.55761 -2.88529 -6.60105 -1.49706 5.47045 -1.91354 -7.07312 0.64217 0.74095 -2.67924
0.00014 0.57923 0.00014 185.43401 0 -2.76489 2.89667 2.16577 -6.96035 -37.09893 3.78295 4.25966 -26.19374 -76.20318 -87.14693 22.99559 74.34379 -31.56568 -2.49203 -6.8175 72.30688 76.20691 26.17938 -71.29446 -32.24634 1.62105 -4.31277 1.68293 6.0119 -6.96342 -1.55618 -2.88448 -6.6095 -1.47018 5.45664 -1.95655 -7.10008 0.64086 0.74816 -2.64755
0.0003 0.57923 0.0002 185.44411 0 -2.75784 2.86271 2.15676 -6.94681 -37.06485 3.81302 4.2526 -26.21538 -76.1245 -87.14678 23.20911 74.4844 -31.68299 -2.47285 -6.96081 72.23836 76.28264 26.2415 -71.34542 -32.25443 1.64476 -4.29318 1.66978 6.01982 -6.97923 -1.55698 -2.88375 -6.61986 -1.43999 5.43961 -2.01853 -7.12627 0.63617 0.75851 -2.60004
0.00044 0.57923 0.00026 185.45438 0 -2.75046 2.83116 2.14788 -6.93721 -37.02779 3.842 4.24618 -26.24167 -76.05205 -87.14692 23.41506 74.61456 -31.80767 -2.45813 -7.11257 72.16814 76.36775 26.30869 -71.39574 -32.26399 1.66543 -4.27477 1.65655 6.02589 -6.99467 -1.55665 -2.88283 -6.62793 -1.40976 5.42292 -2.07239 -7.1546 0.63259 0.76746 -2.56035
